<?xml version="1.0" encoding="UTF-8"?>
<svg width="195px" height="207px" viewBox="0 0 195 207" version="1.1" xmlns="http://www.w3.org/2000/svg" xmlns:xlink="http://www.w3.org/1999/xlink">
    <!-- Generator: Sketch 50.2 (55047) - http://www.bohemiancoding.com/sketch -->
    <title>Group 2</title>
    <desc>Created with Sketch.</desc>
    <defs></defs>
    <g id="sportschuhtuning" stroke="none" stroke-width="1" fill="none" fill-rule="evenodd">
        <g id="404" transform="translate(-620.000000, -161.000000)">
            <g id="Group-2" transform="translate(621.000000, 161.000000)">
                <g id="foot" transform="translate(1.000000, 0.233524)">
                    <path d="M19.2799325,45.0597361 C29.4316004,47.6616942 42.1648258,50.4313103 50.9283564,76.2254762 C59.6918871,102.019642 82.0661308,80.1593166 69.8874157,64.9018317 C57.7087007,49.6443469 45.9062405,33.6384576 43.0599479,20.241107 C40.2136554,6.84375645 23.4435728,9.44315248 16.613204,22.5592811 C9.78283511,35.6754097 14.6173739,43.864683 19.2799325,45.0597361 Z" id="Path-4" stroke="#2F4CFB" stroke-width="2.85120012"></path>
                    <path d="M10.4154782,29.5912487 C12.8806021,27.7076263 12.975596,23.3268101 10.6276531,19.4852273 C8.27971028,15.4014521 4.37794882,13.1416633 1.91282499,14.7590422 C-0.552298836,16.4890105 -0.64729278,21.6781934 1.70065008,26.028212 C4.04859294,30.1360384 7.95035441,31.5874605 10.4154782,29.5912487 Z" id="Oval" stroke="#2F4CFB" stroke-width="2.85120012"></path>
                    <path d="M14.1802133,15.0341771 C16.0248116,13.7140026 16.0958935,10.6436197 14.3389792,7.95116942 C12.5820648,5.08897378 9.66246193,3.50515548 7.81786362,4.6387279 C5.97326531,5.85121086 5.90218341,9.48815369 7.65909777,12.5369514 C9.41601212,15.4160038 12.335615,16.4332621 14.1802133,15.0341771 Z" id="Oval" fill="#2F4CFB"></path>
                    <path d="M21.3864691,10.8032409 C23.0891752,9.56557731 23.1547893,6.6870934 21.5330222,4.16292124 C19.9112551,1.47961282 17.216237,-0.00521683195 15.5135309,1.05750731 C13.8108248,2.19421008 13.7452107,5.60384399 15.3669778,8.46209187 C16.9887449,11.1612035 19.683763,12.1148832 21.3864691,10.8032409 Z" id="Oval" fill="#2F4CFB" transform="translate(18.450000, 6.048876) rotate(5.000000) translate(-18.450000, -6.048876) "></path>
                    <path d="M27.9932114,8.78491923 C29.4121332,7.79478834 29.4668116,5.49200121 28.115339,3.47266348 C26.7638664,1.32601674 24.5180181,0.138153025 23.0990963,0.988332339 C21.6801745,1.89769456 21.6254961,4.62540168 22.9769687,6.91199999 C24.3284413,9.07128929 26.5742896,9.83423302 27.9932114,8.78491923 Z" id="Oval" fill="#2F4CFB" transform="translate(25.546154, 4.981427) rotate(13.000000) translate(-25.546154, -4.981427) "></path>
                    <path d="M35.0893653,9.53541024 C36.508287,8.62779026 36.5629654,6.51690206 35.2114928,4.66584247 C33.8600203,2.69808296 31.6141719,1.60920788 30.1952501,2.38853892 C28.7763283,3.22212096 28.72165,5.72251915 30.0731225,7.8185676 C31.4245951,9.79791613 33.6704435,10.4972812 35.0893653,9.53541024 Z" id="Oval" fill="#2F4CFB" transform="translate(32.642308, 6.048876) rotate(26.000000) translate(-32.642308, -6.048876) "></path>
                </g>
                <g id="foot" transform="translate(50.837640, 146.000895) scale(-1, 1) rotate(-260.000000) translate(-50.837640, -146.000895) translate(13.937640, 101.879683)" fill="#D6D6D6">
                    <path d="M19.2799325,45.0597361 C29.4316004,47.6616942 42.1648258,50.4313103 50.9283564,76.2254762 C59.6918871,102.019642 82.0661308,80.1593166 69.8874157,64.9018317 C57.7087007,49.6443469 45.9062405,33.6384576 43.0599479,20.241107 C40.2136554,6.84375645 23.4435728,9.44315248 16.613204,22.5592811 C9.78283511,35.6754097 14.6173739,43.864683 19.2799325,45.0597361 Z" id="Path-4"></path>
                    <path d="M10.4154782,29.5912487 C12.8806021,27.7076263 12.975596,23.3268101 10.6276531,19.4852273 C8.27971028,15.4014521 4.37794882,13.1416633 1.91282499,14.7590422 C-0.552298836,16.4890105 -0.64729278,21.6781934 1.70065008,26.028212 C4.04859294,30.1360384 7.95035441,31.5874605 10.4154782,29.5912487 Z" id="Oval"></path>
                    <path d="M14.1802133,15.0341771 C16.0248116,13.7140026 16.0958935,10.6436197 14.3389792,7.95116942 C12.5820648,5.08897378 9.66246193,3.50515548 7.81786362,4.6387279 C5.97326531,5.85121086 5.90218341,9.48815369 7.65909777,12.5369514 C9.41601212,15.4160038 12.335615,16.4332621 14.1802133,15.0341771 Z" id="Oval"></path>
                    <path d="M21.3864691,10.8032409 C23.0891752,9.56557731 23.1547893,6.6870934 21.5330222,4.16292124 C19.9112551,1.47961282 17.216237,-0.00521683195 15.5135309,1.05750731 C13.8108248,2.19421008 13.7452107,5.60384399 15.3669778,8.46209187 C16.9887449,11.1612035 19.683763,12.1148832 21.3864691,10.8032409 Z" id="Oval" transform="translate(18.450000, 6.048876) rotate(5.000000) translate(-18.450000, -6.048876) "></path>
                    <path d="M27.9932114,8.78491923 C29.4121332,7.79478834 29.4668116,5.49200121 28.115339,3.47266348 C26.7638664,1.32601674 24.5180181,0.138153025 23.0990963,0.988332339 C21.6801745,1.89769456 21.6254961,4.62540168 22.9769687,6.91199999 C24.3284413,9.07128929 26.5742896,9.83423302 27.9932114,8.78491923 Z" id="Oval" transform="translate(25.546154, 4.981427) rotate(13.000000) translate(-25.546154, -4.981427) "></path>
                    <path d="M35.0893653,9.53541024 C36.508287,8.62779026 36.5629654,6.51690206 35.2114928,4.66584247 C33.8600203,2.69808296 31.6141719,1.60920788 30.1952501,2.38853892 C28.7763283,3.22212096 28.72165,5.72251915 30.0731225,7.8185676 C31.4245951,9.79791613 33.6704435,10.4972812 35.0893653,9.53541024 Z" id="Oval" transform="translate(32.642308, 6.048876) rotate(26.000000) translate(-32.642308, -6.048876) "></path>
                </g>
                <g id="foot" transform="translate(158.786374, 161.177489) rotate(-356.000000) translate(-158.786374, -161.177489) translate(121.886374, 117.056277)" fill="#D6D6D6">
                    <path d="M19.2799325,45.0597361 C29.4316004,47.6616942 42.1648258,50.4313103 50.9283564,76.2254762 C59.6918871,102.019642 82.0661308,80.1593166 69.8874157,64.9018317 C57.7087007,49.6443469 45.9062405,33.6384576 43.0599479,20.241107 C40.2136554,6.84375645 23.4435728,9.44315248 16.613204,22.5592811 C9.78283511,35.6754097 14.6173739,43.864683 19.2799325,45.0597361 Z" id="Path-4"></path>
                    <path d="M10.4154782,29.5912487 C12.8806021,27.7076263 12.975596,23.3268101 10.6276531,19.4852273 C8.27971028,15.4014521 4.37794882,13.1416633 1.91282499,14.7590422 C-0.552298836,16.4890105 -0.64729278,21.6781934 1.70065008,26.028212 C4.04859294,30.1360384 7.95035441,31.5874605 10.4154782,29.5912487 Z" id="Oval"></path>
                    <path d="M14.1802133,15.0341771 C16.0248116,13.7140026 16.0958935,10.6436197 14.3389792,7.95116942 C12.5820648,5.08897378 9.66246193,3.50515548 7.81786362,4.6387279 C5.97326531,5.85121086 5.90218341,9.48815369 7.65909777,12.5369514 C9.41601212,15.4160038 12.335615,16.4332621 14.1802133,15.0341771 Z" id="Oval"></path>
                    <path d="M21.3864691,10.8032409 C23.0891752,9.56557731 23.1547893,6.6870934 21.5330222,4.16292124 C19.9112551,1.47961282 17.216237,-0.00521683195 15.5135309,1.05750731 C13.8108248,2.19421008 13.7452107,5.60384399 15.3669778,8.46209187 C16.9887449,11.1612035 19.683763,12.1148832 21.3864691,10.8032409 Z" id="Oval" transform="translate(18.450000, 6.048876) rotate(5.000000) translate(-18.450000, -6.048876) "></path>
                    <path d="M27.9932114,8.78491923 C29.4121332,7.79478834 29.4668116,5.49200121 28.115339,3.47266348 C26.7638664,1.32601674 24.5180181,0.138153025 23.0990963,0.988332339 C21.6801745,1.89769456 21.6254961,4.62540168 22.9769687,6.91199999 C24.3284413,9.07128929 26.5742896,9.83423302 27.9932114,8.78491923 Z" id="Oval" transform="translate(25.546154, 4.981427) rotate(13.000000) translate(-25.546154, -4.981427) "></path>
                    <path d="M35.0893653,9.53541024 C36.508287,8.62779026 36.5629654,6.51690206 35.2114928,4.66584247 C33.8600203,2.69808296 31.6141719,1.60920788 30.1952501,2.38853892 C28.7763283,3.22212096 28.72165,5.72251915 30.0731225,7.8185676 C31.4245951,9.79791613 33.6704435,10.4972812 35.0893653,9.53541024 Z" id="Oval" transform="translate(32.642308, 6.048876) rotate(26.000000) translate(-32.642308, -6.048876) "></path>
                </g>
            </g>
        </g>
    </g>
</svg>